<?xml version="1.0" encoding="UTF-8" standalone="no"?>
<!-- Created with Inkscape (http://www.inkscape.org/) -->

<svg
   width="154.9994mm"
   height="154.98814mm"
   viewBox="0 0 154.99941 154.98814"
   version="1.1"
   id="svg1"
   xmlns="http://www.w3.org/2000/svg"
   xmlns:svg="http://www.w3.org/2000/svg">
  <defs
     id="defs1" />
  <path
     id="rect19"
     style="fill:#ffffff;stroke-width:0.799999;stroke-linecap:square;stroke-linejoin:bevel"
     d="m 79.32538,0.02151842 c 26.36315,0.6213 50.6007,14.60723058 64.33096,37.12125058 C 165.93869,73.680228 154.38254,121.3631 117.845,143.64531 81.307646,165.92731 33.625158,154.3712 11.342966,117.83397 -10.939122,81.296758 0.61674785,33.614299 37.153794,11.331939 49.836274,3.5975084 64.474651,-0.32850158 79.32538,0.02151842 Z m -11.39362,5.18210998 -9.214941,2.08515 c -1.837782,0.41585 -3.081536,1.13913 -3.731556,2.16937 -0.636483,1.0087706 -0.747104,2.4317306 -0.331246,4.2695106 l 0.178284,0.78755 c 0.415853,1.83778 1.130286,3.08377 2.143022,3.73776 1.02627,0.63252 2.458081,0.74089 4.295862,0.32504 l 6.038391,-1.36632 0.534851,2.36264 c 0.09109,0.40257 0.04179,0.75424 -0.147795,1.05472 -0.176046,0.27902 -0.465604,0.46443 -0.868164,0.55552 -1.697762,0.38417 -4.974234,0.98758 -9.829374,1.81023 l 0.802018,3.54397 c 1.94344,-0.27418 3.81784,-0.56928 5.622913,-0.88574 l 2.439128,-0.44183 c 1.005573,-0.19075 1.954731,-0.38713 2.847371,-0.58911 1.71526,-0.38814 2.884339,-1.07562 3.507279,-2.06293 0.622934,-0.9873 0.74056,-2.33875 0.352434,-4.05401 l -0.29714,-1.31258 c -0.388133,-1.71526 -1.076126,-2.88435 -2.06344,-3.50728 -0.9873,-0.62295 -2.338239,-0.74058 -4.053499,-0.35244 l -4.72581,1.06971 c -1.050164,0.23763 -1.694034,-0.16889 -1.931665,-1.21905 l -0.118856,-0.52503 c -0.23763,-1.05017 0.168372,-1.69404 1.218531,-1.93167 l 8.165393,-1.8474306 z m 18.856215,0.2217 c -1.23012,-0.0685 -2.22267,0.15462 -2.9776,0.66921 -0.98558,0.67182 -1.65352,1.93342 -2.00401,3.78478 l -1.602486,8.4630506 c -0.327127,1.72794 -0.161943,3.07441 0.495577,4.03903 0.657527,0.96461 1.850139,1.61073 3.578079,1.93786 3.45587,0.65425 7.28867,1.1511 11.498,1.49138 l 1.92753,-10.18232 -8.19846,-1.55236 -0.601,3.17397 3.43803,0.65112 -0.72605,3.83491 c -1.69173,-0.22895 -3.55131,-0.53545 -5.57899,-0.91933 -0.40554,-0.0768 -0.71018,-0.25322 -0.91364,-0.52916 -0.18248,-0.29024 -0.23542,-0.63833 -0.15864,-1.04387 l 1.60248,-8.46305 c 0.20029,-1.0579106 0.82931,-1.4870206 1.88723,-1.2867406 l 8.46356,1.6024906 0.70074,-3.7026206 -9.52139,-1.80247 c -0.46284,-0.0876 -0.89892,-0.14305 -1.30896,-0.16588 z m 25.177795,7.7752306 -10.44071,15.68535 12.43594,8.27805 2.08824,-3.13676 -8.40259,-5.59346 2.16266,-3.2489 6.60993,4.39973 2.08825,-3.13675 -6.60993,-4.40025 2.01331,-3.02514 8.40311,5.59346 2.08772,-3.13728 z m -69.798329,0.34623 -12.205457,8.61498 10.866004,15.39389 12.20494,-8.61497 -2.172994,-3.07889 -8.246525,5.82084 -2.251026,-3.18844 6.487459,-4.57956 -2.172993,-3.07837 -6.48746,4.57905 -2.095479,-2.96881 8.246525,-5.82083 z m 36.888188,14.0224 c -20.985929,-0.65415 -40.140175,11.88703 -47.932475,31.38362 -10.23714,25.613029 2.227583,54.675331 27.840678,64.912311 25.612883,10.2368 54.674818,-2.22786 64.911808,-27.840672 10.23714,-25.613029 -2.22758,-54.675339 -27.840685,-64.912319 -5.40981,-2.16227 -11.15623,-3.36132 -16.979326,-3.54294 z m -58.134436,3.50263 -2.726966,4.32687 4.023011,7.49928 -1.291911,2.04949 -6.26215,-3.94704 -2.583305,4.09897 15.940112,10.04745 2.583305,-4.09898 -6.489526,-4.0907 1.291394,-2.04949 8.714713,0.56121 2.727482,-4.32687 -10.883056,-0.65474 z m 113.039617,0.0238 -15.80989,10.25106 2.63602,4.06538 9.48572,-6.15053 -5.97121,11.57087 2.78226,4.29173 15.80989,-10.25105 -2.6355,-4.06539 -9.48624,6.15053 5.97121,-11.57139 z m -56.554176,5.39967 h 16.502871 l 1.11879,0.36432 1.1188,0.36432 1.61902,1.12758 1.61954,1.12758 5.425515,4.00286 5.42602,4.00234 -7.32255,7.37216 -7.323065,7.37267 -12.02976,12.051459 -12.029241,12.05198 -1.0604,2.58641 -1.059884,2.58692 -0.0124,0.33486 -0.01189,0.3359 1.405082,1.8557 1.405599,1.85518 0.50798,0.80771 0.507462,-0.80771 1.921847,-1.58491 1.921846,-1.58492 h 0.274402 0.273885 l 1.658296,1.59835 1.658814,1.59939 0.513664,0.74672 0.513663,-0.86868 1.270725,-1.74924 1.27124,-1.74873 v -0.33797 -0.33848 l -1.86449,-3.31194 -1.864482,-3.31246 v -0.52297 -0.52348 l 2.097542,-1.36581 2.09755,-1.36632 0.83923,-0.54312 0.83922,-0.54312 6.71535,-0.0935 6.715875,-0.093 0.59325,-0.37569 0.59376,-0.3762 2.3611,-2.11719 2.36109,-2.1177 0.58498,-0.83044 0.58549,-0.82992 0.37001,-0.872299 0.37,-0.87178 0.0625,-5.62705 0.0625,-9.26196 2.31252,-2.32234 2.31304,-2.32234 0.37879,0.20309 0.3793,0.20308 0.007,9.29814 0.007,4.04937 0.10077,1.95802 0.1018,1.9575 0.16537,0.30799 0.16485,0.30851 2.53214,3.383779 2.53266,3.3848 0.37311,0.632 0.3731,0.63252 -0.0589,3.36362 -0.0579,3.36414 -0.46664,0.45837 -0.46612,0.45837 -7.27191,2.7311 -7.27242,2.73161 -0.87488,0.37518 -0.87437,0.37465 -1.88412,1.93683 -1.884645,1.93632 -0.2713,0.65009 -0.27182,0.6506 v 5.215192 5.21467 l -0.1664,0.4377 -0.16588,0.4377 -3.73931,4.90409 -3.74964,4.90306 -0.007,-5.28236 -0.004,-5.28237 -0.26458,-1.24799 -0.26407,-1.24746 -0.52503,-1.08366 -0.52503,-1.08314 -0.34004,-0.0625 -0.34003,-0.063 -0.31264,0.28422 -0.31264,0.28474 -2.14147,4.30051 -2.14147,4.30051 -0.0961,-0.004 -0.0966,-0.004 -2.424146,-4.40748 -2.424657,-4.408 -0.326079,-0.20205 -0.326078,-0.20206 -0.326595,0.20051 -0.326078,0.20102 -0.487826,0.91725 -0.487825,0.91726 -1.955953,3.69332 -1.955953,3.69331 -2.363164,-4.76508 -2.364196,-4.76612 H 66.668669 66.19738 l -0.447001,0.97875 -0.447518,0.97979 -0.322461,1.11879 -0.322461,1.1188 -0.106453,5.45341 -0.105937,5.45393 -3.542936,-4.67775 -3.542937,-4.67827 -0.224792,-0.49558 -0.224793,-0.49661 -0.0067,-5.27409 -0.0072,-5.273582 -0.260966,-0.59997 -0.26045,-0.60048 -1.842264,-2.0469 -1.842265,-2.0469 -0.834058,-0.32763 -0.834574,-0.32815 -4.754749,-1.75855 -4.755782,-1.75803 -2.610176,-0.9648 -2.610694,-0.9648 -0.466638,-0.4532 -0.466121,-0.45372 -0.05684,-3.41374 -0.0584,-3.41375 2.181779,-2.96933 2.181779,-2.969839 0.859379,-1.11518 0.859896,-1.11569 0.107487,-1.30897 0.107487,-1.30793 0.04134,-7.45897 0.04237,-7.4595 0.180867,-0.80873 0.180868,-0.80822 0.395325,-0.7767 0.395324,-0.77669 0.476974,-0.62632 0.476973,-0.62684 2.526461,-1.79059 2.526461,-1.7911 4.288627,-3.19257 4.289144,-3.19257 0.745691,-0.47749 0.745691,-0.47646 1.025777,-0.34623 1.025261,-0.34623 z m -30.221928,23.74687 0.05581,5.84306 0.05633,5.84357 0.541569,1.118789 0.540535,1.1188 1.562695,1.53789 1.563213,1.53789 1.424202,1.21543 1.424719,1.21543 0.574125,0.16743 0.574642,0.16692 5.686992,0.0129 5.687508,0.0155 0.737423,-0.12144 0.736389,-0.12196 1.455208,-1.41438 1.454692,-1.4149 -5.544881,-3.82251 -5.544365,-3.823019 -5.637899,-3.9486 -5.637382,-3.94911 -0.856278,-0.58859 z m -33.359204,9.91206 c -0.305347,1.97809 -1.14518,3.584699 -2.519226,4.819349 -1.3674091,1.22801 -2.8310441,1.92806 -4.3909471,2.10064 v 0.83664 c 1.546632,0.15932 3.007087,0.853 4.3811281,2.08101 1.374047,1.22138 2.21706,2.83116 2.529045,4.82917 h 0.836124 c 0.325256,-1.96482 1.161915,-3.56455 2.509408,-4.79919 1.354132,-1.24129 2.820942,-1.94503 4.400765,-2.11099 v -0.83664 c -1.546632,-0.16594 -3.003902,-0.86281 -4.37131,-2.09083 -1.36077,-1.22801 -2.206968,-2.837789 -2.538863,-4.829159 z m 126.688918,0.001 c -0.30534,1.9781 -1.14518,3.584179 -2.51923,4.818829 -1.36741,1.22801 -2.83104,1.92858 -4.39095,2.10117 v 0.83612 c 1.54664,0.15931 3.00708,0.853 4.38113,2.08101 1.37405,1.22137 2.21707,2.83116 2.52905,4.82916 h 0.83612 c 0.32526,-1.96482 1.16191,-3.56454 2.50941,-4.79919 1.35413,-1.24128 2.82095,-1.94503 4.40076,-2.11098 v -0.83612 c -1.54662,-0.16595 -3.00338,-0.86282 -4.37079,-2.09083 -1.36077,-1.22801 -2.20748,-2.837789 -2.53938,-4.829169 z m -16.10962,34.577741 -5.70766,7.52977 c -1.1382,1.50162 -1.62391,2.85551 -1.45779,4.06229 0.16267,1.18164 0.99436,2.34168 2.49597,3.47989 l 0.64389,0.48782 c 1.50162,1.13822 2.85032,1.63133 4.04626,1.4795 1.19248,-0.17697 2.3577,-1.01606 3.49592,-2.51768 l 3.73982,-4.93406 1.93063,1.46347 c 0.32891,0.24932 0.51791,0.5503 0.56637,0.90227 0.045,0.32684 -0.0571,0.65447 -0.30644,0.98341 -1.05149,1.3872 -3.16994,3.95888 -6.35465,7.71477 l 2.89595,2.19522 c 1.31028,-1.46126 2.55435,-2.89445 3.73155,-4.29897 l 1.5813,-1.90841 c 0.64649,-0.79348 1.24653,-1.55473 1.79938,-2.28409 1.06232,-1.40151 1.51364,-2.68049 1.35444,-3.83698 -0.15921,-1.1565 -0.93944,-2.26615 -2.34095,-3.32848 l -1.0728,-0.81287 c -1.40151,-1.06233 -2.68048,-1.51416 -3.83697,-1.35495 -1.1565,0.1592 -2.26563,0.93994 -3.32797,2.34145 l -2.92695,3.86127 c -0.65041,0.85806 -1.40484,0.9615 -2.26291,0.31109 l -0.42892,-0.32505 c -0.85806,-0.65041 -0.96201,-1.40433 -0.3116,-2.26239 l 5.05705,-6.67143 z m -94.009767,0.009 -14.757756,11.71505 7.19646,9.0656 c 1.093397,1.3774 2.219875,2.1327 3.379639,2.26601 1.159769,0.13331 2.428565,-0.34683 3.805969,-1.44022 0.576266,-0.45745 1.026168,-0.929 1.350305,-1.41542 0.885188,-1.36711 1.030662,-2.74295 0.43615,-4.12688 0.6348,0.36669 1.357182,0.52637 2.167309,0.47904 0.824182,-0.0585 1.657826,-0.4225 2.501139,-1.09192 1.27902,-1.0153 1.971159,-2.09129 2.076359,-3.22875 0.119256,-1.1486 -0.367496,-2.41202 -1.460892,-3.78943 z m 0.06098,6.13813 2.845304,3.58376 c 0.669426,0.84331 0.582348,1.59969 -0.260966,2.26911 l -0.421679,0.33487 c -0.843309,0.66942 -1.599682,0.58234 -2.269112,-0.26097 l -2.845305,-3.58376 z m -5.902999,4.68602 3.347083,4.21628 c 0.66943,0.84331 0.582347,1.59969 -0.260966,2.26911 l -0.42168,0.33487 c -0.843313,0.66942 -1.599687,0.58234 -2.269112,-0.26097 l -3.347083,-4.21628 z m 88.546536,3.09645 -12.61525,8.0021 10.09293,15.91117 12.61525,-8.00209 -2.01848,-3.18224 -8.52403,5.40691 -2.09083,-3.29593 6.70553,-4.25348 -2.01848,-3.18224 -6.70553,4.25349 -1.94665,-3.06855 8.52402,-5.4069 z m -68.969436,1.59732 -9.678479,16.16697 12.586828,7.53494 1.9358,-3.23339 -8.429977,-5.04621 7.74268,-12.93357 z m 47.840491,9.3307 c -0.44954,0.0234 -0.92267,0.0855 -1.41955,0.18603 l -10.289296,2.08205 3.736726,18.46812 10.28929,-2.08204 c 1.98753,-0.40216 3.38808,-1.21619 4.20181,-2.44275 0.82777,-1.24771 1.04087,-2.86541 0.63872,-4.85293 l -1.28157,-6.33192 c -0.40216,-1.98753 -1.22496,-3.38647 -2.4691,-4.19664 -0.92259,-0.62349 -2.0584,-0.90026 -3.40703,-0.82992 z m -26.705866,0.39634 -10.37456,17.27129 5.165059,0.93431 1.791105,-3.0949 6.621819,1.19786 0.593245,3.52692 5.165059,0.93431 -3.664375,-19.8112 z m 26.046986,3.63543 c 0.95049,0.11664 1.54624,0.7682 1.78646,1.95544 l 1.28106,6.33191 c 0.3203,1.58299 -0.31096,2.53482 -1.89394,2.85512 l -4.48552,0.90744 -2.24172,-11.08097 4.48499,-0.90744 c 0.39575,-0.0801 0.75184,-0.10038 1.06867,-0.0615 z m -24.404708,2.40606 0.992704,6.60838 -4.237984,-0.76688 z" />
</svg>
