<?xml version="1.0" encoding="UTF-8" standalone="no"?>
<!-- Created with Inkscape (http://www.inkscape.org/) -->

<svg
   width="203.10956mm"
   height="203.10954mm"
   viewBox="0 0 203.10956 203.10954"
   version="1.1"
   id="svg1"
   xmlns="http://www.w3.org/2000/svg"
   xmlns:svg="http://www.w3.org/2000/svg">
  <defs
     id="defs1" />
  <g
     id="layer1"
     transform="translate(-3.4452276,-46.945222)">
    <path
       id="text14-5-1-7-0"
       style="font-size:26.7248px;font-family:'Russo One';-inkscape-font-specification:'Russo One';letter-spacing:2.00437px;stroke-width:7;stroke-linecap:square;stroke-linejoin:bevel"
       d="m 187.58579,138.88908 h 1.09613 q 0.65247,3.91476 3.32756,6.32887 2.68813,2.4141 5.7286,2.74033 v 1.09614 q -3.10571,0.32623 -5.76775,2.76643 -2.64899,2.42716 -3.28841,6.28973 h -1.09613 q -0.61331,-3.92782 -3.3145,-6.32888 -2.70119,-2.4141 -5.74166,-2.72728 v -1.09614 q 3.06657,-0.33928 5.75471,-2.75338 2.70119,-2.42716 3.30145,-6.31582 z m -166.035672,-0.001 h 1.09613 q 0.65246,3.91476 3.32755,6.32887 2.68814,2.4141 5.72861,2.74033 v 1.09614 q -3.10572,0.32623 -5.76776,2.76643 -2.64899,2.42716 -3.2884,6.28973 h -1.09613 q -0.61332,-3.92782 -3.31451,-6.32888 -2.70118,-2.4141 -5.74165,-2.72728 v -1.09614 q 3.06656,-0.33928 5.7547,-2.75338 2.70119,-2.42716 3.30146,-6.31582 z m 61.69934,-44.111731 -1.34375,0.45379 -1.34447,0.4538 -0.97733,0.62486 -0.97733,0.62561 -5.62095,4.183951 -5.62094,4.18395 -3.31088,2.34752 -3.31089,2.34677 -0.6256,0.82165 -0.62488,0.82093 -0.5184,1.01771 -0.51767,1.01773 -0.23718,1.05956 -0.23717,1.05958 -0.0552,9.77625 -0.0542,9.77551 -0.14095,1.71456 -0.14097,1.71529 -1.12711,1.46196 -1.1264,1.46196 -2.85929,3.8917 -2.85931,3.8917 0.0765,4.47399 0.0749,4.474 0.61092,0.59477 0.61091,0.59402 3.42177,1.26445 3.42103,1.26442 6.2326,2.30419 6.23185,2.30418 1.09337,0.43029 1.09334,0.42956 2.41432,2.68234 2.41432,2.68308 0.34146,0.78641 0.34217,0.78641 0.009,6.91182 0.009,6.91181 0.29445,0.65057 0.29446,0.64984 4.64359,6.13127 4.64361,6.13054 0.13884,-7.14753 0.13953,-7.14751 0.42221,-1.46637 0.42295,-1.46636 0.58597,-1.28353 0.58596,-1.28279 h 0.61753 0.61679 l 3.09795,6.24582 3.09721,6.24508 2.563372,-4.8404 2.56339,-4.84039 0.63957,-1.20204 0.63955,-1.20201 0.42736,-0.26362 0.42808,-0.26286 0.42736,0.26506 0.42735,0.2651 3.17724,5.7766 3.17724,5.77661 0.12633,0.005 0.12632,0.005 2.80642,-5.63563 2.80645,-5.63636 0.40972,-0.37302 0.40972,-0.373 0.44571,0.083 0.44573,0.0822 0.68801,1.41937 0.68803,1.4201 0.34658,1.63526 0.34658,1.63524 0.005,6.92284 0.009,6.92281 4.91383,-6.42571 4.9006,-6.42718 0.21735,-0.57347 0.21808,-0.57348 v -6.83472 -6.83471 l 0.35613,-0.85251 0.35612,-0.85176 2.4694,-2.53769 2.4694,-2.53841 1.14622,-0.49124 1.14621,-0.49196 9.531,-3.57964 9.531,-3.57963 0.61094,-0.60065 0.61092,-0.60064 0.0763,-4.40863 0.0772,-4.40866 -0.48903,-0.82899 -0.48903,-0.82827 -3.31896,-4.43582 -3.31898,-4.43506 -0.21587,-0.40385 -0.21661,-0.40387 -0.13371,-2.56559 -0.13214,-2.56632 -0.009,-5.30667 -0.009,-5.30666 -0.49711,-0.26655 -0.49639,-0.26582 -3.03112,1.98552 -3.03111,1.98477 -0.0815,7.37587 -0.0822,7.37515 -0.48462,1.14254 -0.48536,1.14329 -0.76732,1.08746 -0.76661,1.08822 -3.09426,2.77559 -3.09427,2.77485 -0.77835,0.49271 -0.7776,0.49271 -8.80113,0.12191 -8.80111,0.12262 -1.09997,0.71152 -1.09995,0.71153 -2.74916,1.79092 -2.74915,1.79018 v 0.68583 0.68581 l 2.44369,4.34109 2.44369,4.34035 v 0.4435 0.44277 l -1.66608,2.29244 -1.66536,2.29243 -0.67334,0.08 -0.67333,0.0793 -2.17349,-2.09565 -2.17347,-2.09492 h -0.35907 -0.35979 l -2.5186,2.07729 -2.518592,2.07729 h -0.66526 -0.66526 l -1.84231,-2.43195 -1.84159,-2.43195 0.0155,-0.43982 0.0162,-0.43912 1.38927,-3.39019 1.38927,-3.38944 15.765802,-15.79518 15.7658,-15.79443 9.59709,-9.66245 9.59708,-9.66171 -7.11153,-5.24571 -7.11082,-5.245731 -2.12206,-1.47737 -2.12208,-1.47811 -1.46636,-0.4773 -1.46638,-0.47728 H 104.8776 Z m -17.97967,31.121151 1.12124,0.77174 1.12199,0.77172 7.38836,5.17523 7.3891,5.17524 7.26647,5.01001 7.26647,5.01001 -1.9062,1.85407 -1.90694,1.85407 -0.96558,0.15934 -0.96631,0.15934 -7.45372,-0.0206 -7.4537,-0.0169 -0.75265,-0.2188 -0.75264,-0.21883 -1.86728,-1.5934 -1.86655,-1.59266 -2.04866,-2.0156 -2.04791,-2.01561 -0.70858,-1.46636 -0.70932,-1.46636 -0.0742,-7.65785 z m -21.04972,-1.68993 A 65.454613,65.454613 0 0 1 129.29232,87.720219 65.454613,65.454613 0 0 1 165.77967,172.79245 65.454613,65.454613 0 0 1 80.707428,209.2798 65.454613,65.454613 0 0 1 44.220068,124.20757 Z m -0.95387,60.00999 8.77336,11.05224 q 2.14947,2.7078 1.91503,4.96581 -0.20681,2.23607 -2.72119,4.23201 -1.65784,1.31601 -3.27807,1.43108 -1.5926,0.0931 -2.84053,-0.62782 1.16873,2.72061 -0.57143,5.40817 -0.63721,0.95624 -1.77007,1.85551 -2.70779,2.14947 -4.98774,1.8874 -2.27994,-0.26207 -4.42941,-2.96987 l -9.43136,-11.88115 z m -3.61199,22.68549 q 1.65784,-1.316 0.34183,-2.97384 l -4.38668,-5.52612 -3.86828,3.07068 4.38668,5.52612 q 1.316,1.65783 2.97384,0.34183 z m 7.07856,-6.97027 q 1.65784,-1.316 0.34184,-2.97383 l -3.72868,-4.69721 -3.86828,3.07068 3.72867,4.6972 q 1.31601,1.65784 2.97384,0.34183 z m 9.83481,24.83387 11.04799,6.61389 -2.53683,4.23758 -16.49632,-9.87552 12.68417,-21.18793 5.44832,3.26164 z m 25.57064,16.39635 -6.76925,-1.22488 13.59624,-22.63527 6.94282,1.25629 4.802222,25.96443 -6.769252,-1.22488 -0.77695,-4.62192 -8.67852,-1.57036 z m 4.72603,-8.28676 5.55425,1.00503 -1.30098,-8.66032 z m 35.240782,-15.84887 q 3.90721,-0.79057 6.32546,0.84369 2.44583,1.5927 3.23641,5.49991 l 1.6791,8.2985 q 0.79057,3.90721 -0.8367,6.36004 -1.59969,2.41126 -5.5069,3.20183 l -13.48507,2.72854 -4.89737,-24.20397 z m 3.33799,7.60292 q -0.62966,-3.11194 -3.7416,-2.48227 l -5.87811,1.18936 2.93843,14.52238 5.8781,-1.18936 q 3.11194,-0.62966 2.48228,-3.7416 z m 39.4411,-1.31604 -16.53355,10.48742 -13.22737,-20.85313 16.53355,-10.48742 2.64547,4.17063 -11.17131,7.08609 2.55099,4.02167 8.7881,-5.57439 2.64548,4.17063 -8.78811,5.57439 2.73996,4.31958 11.17132,-7.0861 z m 5.6417,-12.04317 q 6.26071,-7.38359 8.3278,-10.11065 0.49014,-0.64662 0.40169,-1.28914 -0.0953,-0.69194 -0.74188,-1.18207 l -2.53026,-1.91792 -4.90135,6.46623 q -2.23757,2.95197 -4.58182,3.29986 -2.35105,0.29847 -5.30303,-1.9391 l -0.84342,-0.63931 q -2.95197,-2.23757 -3.27175,-4.56051 -0.32658,-2.37236 1.91099,-5.32433 l 7.47988,-9.86803 3.93596,2.98343 -6.62747,8.74346 q -1.27861,1.68685 0.40823,2.96546 l 0.56228,0.4262 q 1.68684,1.27861 2.96545,-0.40823 l 3.83584,-5.06052 q 2.0884,-2.75518 4.36192,-3.06815 2.27351,-0.31298 5.02869,1.77542 l 1.4057,1.06551 q 2.75517,2.0884 3.06815,4.36192 0.31297,2.27351 -1.77543,5.02869 -1.08682,1.43381 -2.35773,2.99369 l -2.07299,2.50125 q -2.31421,2.76108 -4.89005,5.63372 z M 43.539148,113.8473 l -3.38599,5.37193 -20.89084,-13.16774 3.38599,-5.37193 8.20712,5.17304 1.69299,-2.68596 -5.27259,-9.828721 3.5741,-5.67036 6.60923,12.339241 14.2628,0.85834 -3.5741,5.67037 -11.42127,-0.73532 -1.693,2.68596 z m 29.39572,-28.973221 -15.99569,11.29081 -14.24065,-20.17474 15.99569,-11.29081 2.84813,4.03495 -10.8079,7.62892 2.74641,3.89085 8.50222,-6.00142 2.84813,4.03495 -8.50222,6.00141 2.94985,4.17906 10.8079,-7.62892 z m 5.19806,-7.79265 q 9.54455,-1.61721 12.88212,-2.37244 0.79138,-0.17908 1.13746,-0.7276 0.37271,-0.59071 0.19364,-1.38209 l -0.70073,-3.09671 -7.91382,1.79075 q -3.61283,0.81752 -5.63034,-0.42593 -1.9909,-1.28564 -2.80841,-4.89847 l -0.23358,-1.03224 q -0.81752,-3.61283 0.43372,-5.59594 1.27785,-2.0253 4.89068,-2.84282 l 12.07717,-2.73284 1.09003,4.81711 -10.70086,2.4214 q -2.06447,0.46716 -1.59732,2.53163 l 0.15572,0.68816 q 0.46715,2.06447 2.53162,1.59732 l 6.19343,-1.40146 q 3.37197,-0.76301 5.31288,0.4616 1.94092,1.22461 2.70393,4.59658 l 0.3893,1.7204 q 0.76301,3.37197 -0.4616,5.31289 -1.22461,1.94091 -4.59659,2.70393 -1.7548,0.39708 -3.73162,0.77206 l -3.19667,0.57867 q -3.54854,0.62212 -7.36907,1.16111 z m 50.819172,3.69098 q -8.27498,-0.66897 -15.06876,-1.95513 -3.39689,-0.64308 -4.68949,-2.5394 -1.2926,-1.89631 -0.64952,-5.2932 l 2.09986,-11.09188 q 0.68902,-3.63952 2.62655,-4.96022 1.97877,-1.3488 5.61829,-0.65979 l 12.47836,2.36235 -0.91869,4.85269 -11.09188,-2.09986 q -2.07972,-0.39372 -2.47345,1.68601 l -2.09986,11.09187 q -0.15093,0.79723 0.20781,1.36781 0.39997,0.54248 1.19719,0.6934 3.98615,0.75464 7.31186,1.20473 l 0.9515,-5.02601 -4.50608,-0.85307 0.78745,-4.15945 10.74526,2.03424 z m 23.83354,14.87931 -16.29855,-10.84903 13.68346,-20.55673 16.29856,10.84903 -2.7367,4.11135 -11.01253,-7.33043 -2.63895,3.96451 8.66319,5.76661 -2.73669,4.11134 -8.6632,-5.7666 -2.83443,4.25818 11.01254,7.33043 z m 17.19831,23.537591 -3.64652,-5.62407 7.82603,-15.164821 -12.43216,8.060731 -3.4546,-5.32807 20.72027,-13.434541 3.64652,5.62407 -7.82603,15.164821 12.43216,-8.06073 3.4546,5.32807 z M 18.296578,201.37616 A 101.55477,101.55477 0 0 0 157.87616,235.20342 101.55477,101.55477 0 0 0 191.70342,95.623829 101.55477,101.55477 0 0 0 52.123838,61.796579 101.55477,101.55477 0 0 0 18.296578,201.37616 Z" />
  </g>
</svg>
