<?xml version="1.0" encoding="UTF-8" standalone="no"?>
<!-- Created with Inkscape (http://www.inkscape.org/) -->

<svg
   width="154.05927mm"
   height="40.615528mm"
   viewBox="0 0 154.05927 40.615528"
   version="1.1"
   id="svg1"
   xmlns="http://www.w3.org/2000/svg"
   xmlns:svg="http://www.w3.org/2000/svg">
  <defs
     id="defs1" />
  <g
     id="layer1"
     transform="translate(-43.705813,-138.91587)">
    <path
       id="rect45-1"
       style="fill:#ffffff;stroke:none;stroke-width:0.8;stroke-linecap:square;stroke-linejoin:bevel;stroke-dasharray:none"
       d="m 64.594235,138.91589 h 8.17554 l 0.55437,0.18049 0.55418,0.1803 0.80226,0.55887 0.80206,0.55827 2.68787,1.98309 2.68826,1.98288 -3.62765,3.65207 -3.62785,3.65246 -5.9596,5.97035 -5.959408,5.97074 -0.525268,1.28123 -0.525075,1.28142 -0.006,0.16604 -0.0059,0.16624 0.696002,0.91927 0.69638,0.91926 0.251599,0.40005 0.2514,-0.40005 0.95208,-0.78526 0.95209,-0.78507 h 0.13595 0.13577 l 0.82159,0.7919 0.8216,0.79211 0.25452,0.36997 0.25454,-0.43014 0.62938,-0.86672 0.62977,-0.86652 v -0.16721 -0.1678 l -0.92376,-1.64066 -0.92357,-1.64085 v -0.25921 -0.25941 l 1.03921,-0.67666 1.03901,-0.67685 0.41588,-0.26898 0.41588,-0.26899 3.32682,-0.0465 3.32682,-0.0459 0.29399,-0.18636 0.29419,-0.18616 1.16968,-1.04897 1.1695,-1.04917 0.28988,-0.41138 0.29008,-0.41099 0.18342,-0.43229 0.18323,-0.4319 0.0311,-2.78768 0.0309,-4.58852 1.14566,-1.15016 1.14586,-1.15075 0.18753,0.1006 0.18792,0.1008 0.003,4.6063 0.003,2.00594 0.05,0.97005 0.0506,0.96986 0.0818,0.15256 0.0815,0.15276 1.25466,1.6764 1.25467,1.67679 0.18478,0.31313 0.1848,0.31332 -0.0291,1.66645 -0.0289,1.66644 -0.23089,0.22717 -0.2309,0.22699 -3.60284,1.35311 -3.60264,1.35312 -0.43326,0.18596 -0.43326,0.18577 -0.93353,0.9595 -0.93353,0.95913 -0.13458,0.32211 -0.13459,0.32211 v 2.58355 2.58357 l -0.0824,0.21683 -0.0822,0.21682 -1.8524,2.42943 -1.85749,2.42905 -0.003,-2.61696 -0.002,-2.61677 -0.13087,-0.61824 -0.13108,-0.61806 -0.25999,-0.53679 -0.26019,-0.5366 -0.16839,-0.0311 -0.16858,-0.0314 -0.1549,0.14104 -0.15491,0.14103 -1.06068,2.13057 -1.0609,2.13037 -0.0478,-0.002 -0.0477,-0.002 -1.20094,-2.1835 -1.20114,-2.18351 -0.16155,-0.1002 -0.16155,-0.10021 -0.16174,0.0992 -0.16154,0.0996 -0.24183,0.45436 -0.24164,0.45455 -0.96907,1.82955 -0.968885,1.82975 -1.170866,-2.36068 -1.171063,-2.36087 H 59.274905 59.04147 l -0.221516,0.48483 -0.22151,0.48522 -0.159784,0.55418 -0.159599,0.55437 -0.05272,2.70174 -0.05255,2.70193 -1.755324,-2.3175 -1.755312,-2.31751 -0.111347,-0.24573 -0.111341,-0.24594 -0.0035,-2.61266 -0.0035,-2.61266 -0.129513,-0.29731 -0.128921,-0.29731 -0.912629,-1.0142 -0.912622,-1.014 -0.413335,-0.16233 -0.413341,-0.16252 -2.355599,-0.87102 -2.355988,-0.87102 -1.293146,-0.478 -1.293534,-0.47799 -0.230889,-0.22445 -0.230895,-0.22483 -0.0283,-1.69125 -0.02894,-1.69125 1.080812,-1.4711 1.080817,-1.4711 0.42584,-0.55262 0.426037,-0.55261 0.0533,-0.64833 0.05313,-0.64813 0.02053,-3.69524 0.02094,-3.69543 0.08966,-0.40044 0.08966,-0.40064 0.195728,-0.38463 0.195925,-0.38462 0.236167,-0.31039 0.236556,-0.31059 1.251541,-0.88704 1.251535,-0.88742 2.124705,-1.58148 2.12471,-1.58166 0.369386,-0.23655 0.369584,-0.23617 0.508075,-0.17151 0.508076,-0.1715 z m -14.971979,11.76431 0.02773,2.89473 0.02796,2.89474 0.268202,0.55417 0.267808,0.55438 0.774131,0.76182 0.774519,0.76202 0.705567,0.60204 0.705758,0.60222 0.284414,0.0828 0.28461,0.0826 2.817575,0.006 2.817575,0.008 0.365285,-0.0603 0.364892,-0.0602 0.720804,-0.70088 0.720606,-0.70087 -2.746858,-1.89382 -2.746673,-1.89381 -2.79315,-1.95613 -2.792767,-1.95632 -0.424083,-0.29164 z m 94.061814,10.25145 h 5.44896 q 1.335,0 1.96163,0.61301 0.62663,0.59938 0.62663,1.83902 0,0.81735 -0.35418,1.335 -0.35418,0.50403 -0.87184,0.70836 1.10342,0.2997 1.49847,1.47122 0.13622,0.4223 0.13622,0.98081 0,1.335 -0.62663,1.96163 -0.62663,0.62663 -1.96162,0.62663 h -5.85764 z m 5.99386,6.53875 q 0,-0.81734 -0.81734,-0.81734 h -2.72448 v 1.90713 h 2.72448 q 0.81734,0 0.81734,-0.81734 z m -0.40867,-3.81427 q 0,-0.81734 -0.81735,-0.81734 h -2.3158 v 1.90713 h 2.3158 q 0.81735,0 0.81735,-0.81734 z m 6.53874,4.90406 h 4.97217 v 1.90714 h -7.4242 v -9.53568 h 2.45203 z m 7.62854,1.90714 h -2.65637 l 3.60994,-9.53568 h 2.72448 l 3.60993,9.53568 h -2.65636 l -0.61301,-1.7028 h -3.4056 z m 1.22602,-3.47371 h 2.17958 l -1.08979,-3.20127 z m 12.05581,-6.06197 q 1.53933,0 2.32943,0.80372 0.80372,0.7901 0.80372,2.32943 v 3.26938 q 0,1.53933 -0.80372,2.34305 -0.7901,0.7901 -2.32943,0.7901 h -5.31274 v -9.53568 z m 0.68112,3.13315 q 0,-1.22601 -1.22602,-1.22601 h -2.31581 v 5.7214 h 2.31581 q 1.22602,0 1.22602,-1.22601 z m 11.37469,6.40253 h -7.56043 v -9.53568 h 7.56043 v 1.90714 h -5.1084 v 1.83902 h 4.01861 v 1.90714 h -4.01861 v 1.97524 h 5.1084 z m 0.80373,-1.97525 q 3.73254,0.20434 5.05391,0.20434 0.31331,0 0.49041,-0.17709 0.19071,-0.19072 0.19071,-0.50403 v -1.22602 h -3.13315 q -1.43036,0 -2.08423,-0.64025 -0.64025,-0.65388 -0.64025,-2.08423 v -0.40867 q 0,-1.43035 0.64025,-2.0706 0.65387,-0.65388 2.08423,-0.65388 h 4.78146 v 1.90714 h -4.23657 q -0.81734,0 -0.81734,0.81734 v 0.27245 q 0,0.81734 0.81734,0.81734 h 2.45203 q 1.335,0 1.96163,0.62663 0.62663,0.62663 0.62663,1.96163 v 0.68112 q 0,1.33499 -0.62663,1.96162 -0.62663,0.62663 -1.96163,0.62663 -0.69474,0 -1.47121,-0.0272 l -1.25327,-0.0545 q -1.38948,-0.0681 -2.87432,-0.19071 z M 96.632407,157.81413 h -4.85955 v -18.89825 h 4.85955 v 7.42432 h 2.429775 l 4.211608,-7.42432 h 5.12953 l -5.29151,9.31414 5.26451,9.58411 h -5.12953 l -4.184608,-7.69428 h -2.429775 z m 28.374393,0 h -14.98362 v -18.89825 h 14.98362 v 3.77965 h -10.12407 v 3.64467 h 7.96427 v 3.77965 h -7.96427 v 3.91463 h 10.12407 z m 1.59286,-3.91463 q 7.39731,0.40496 10.01607,0.40496 0.62094,0 0.97191,-0.35097 0.37796,-0.37796 0.37796,-0.99891 v -2.42977 h -6.20942 q -2.83474,0 -4.13062,-1.26888 -1.26888,-1.29588 -1.26888,-4.13062 v -0.80993 q 0,-2.83473 1.26888,-4.10362 1.29588,-1.29588 4.13062,-1.29588 h 9.47612 v 3.77965 h -8.39622 q -1.61985,0 -1.61985,1.61985 v 0.53995 q 0,1.61985 1.61985,1.61985 h 4.85955 q 2.64575,0 3.88764,1.24189 1.24188,1.24188 1.24188,3.88764 v 1.34987 q 0,2.64576 -1.24188,3.88764 -1.24189,1.24189 -3.88764,1.24189 -1.37687,0 -2.91573,-0.054 l -2.48377,-0.10799 q -2.75375,-0.13498 -5.69647,-0.37796 z m 34.85377,3.50967 q -6.31742,0.67494 -11.60893,0.67494 -2.64575,0 -3.88764,-1.24189 -1.24188,-1.24188 -1.24188,-3.88764 v -8.6392 q 0,-2.83473 1.26888,-4.10362 1.29588,-1.29588 4.13062,-1.29588 h 9.7191 v 3.77965 h -8.6392 q -1.61985,0 -1.61985,1.61985 v 8.6392 q 0,0.62095 0.35097,0.99891 0.37796,0.35097 0.9989,0.35097 3.10472,0 5.66948,-0.13499 v -3.91464 h -3.50968 v -3.2397 h 8.36923 z m 17.68338,0.40496 H 164.1532 v -18.89825 h 14.98361 v 3.77965 h -10.12406 v 3.64467 h 7.96426 v 3.77965 h -7.96426 v 3.91463 h 10.12406 z m 18.62828,0 h -5.12952 l -6.4794,-11.33895 v 11.33895 h -4.85955 v -18.89825 h 5.12952 l 6.4794,11.33895 v -11.33895 h 4.85955 z" />
  </g>
</svg>
