<?xml version="1.0" encoding="UTF-8" standalone="no"?>
<!-- Created with Inkscape (http://www.inkscape.org/) -->

<svg
   width="7mm"
   height="6.79mm"
   viewBox="0 0 7 6.79"
   version="1.1"
   id="svg1"
   xmlns="http://www.w3.org/2000/svg"
   xmlns:svg="http://www.w3.org/2000/svg">
  <defs
     id="defs1" />
  <g
     id="layer1">
    <path
       id="path32-8-5-6"
       style="fill:#000000;stroke-width:0.175618"
       d="m 2.124535,6.5998093e-4 -0.0849,0.0286999991 -0.085,0.0287 -0.0618,0.0395 -0.0618,0.0395 -0.35521,0.2644 -0.35519,0.26439 -0.20922,0.14834 -0.20922,0.1483 -0.0395,0.0519 -0.0395,0.0519 -0.0328,0.0643 -0.0327,0.0643 -0.015,0.067 -0.015,0.067 -0.003,0.61777 -0.003,0.61774 -0.009,0.10835 -0.009,0.10838 -0.0712,0.0924 -0.0712,0.0924 -0.18068,0.24593 -0.18069,0.24592 0.005,0.28273 0.005,0.28271 0.0386,0.0376 0.0386,0.0375 0.21623,0.0799 0.21618,0.0799 0.39385,0.14562 0.39381,0.1456 0.0691,0.0272 0.0691,0.0271 0.15258,0.16951 0.15256,0.16955 0.0216,0.0497 0.0216,0.0497 6.8e-4,0.43677 6.9e-4,0.43677 0.0186,0.0411 0.0186,0.0411 0.29343,0.38745 0.29344,0.3874 0.009,-0.45167 0.009,-0.45166 0.0267,-0.0927 0.0267,-0.0927 0.037,-0.0811 0.037,-0.0811 h 0.039 0.039 l 0.19577,0.39469 0.19571,0.39463 0.16199,-0.30587 0.16198,-0.30587 0.0404,-0.076 0.0404,-0.076 0.027,-0.0166 0.027,-0.0166 0.027,0.0168 0.027,0.0168 0.20079,0.36503 0.20076,0.36504 0.008,2.3e-4 0.008,2.2e-4 0.17735,-0.35613 0.17734,-0.35617 0.0259,-0.0236 0.0259,-0.0236 0.0282,0.005 0.0282,0.005 0.0435,0.0897 0.0435,0.0897 0.0219,0.10333 0.0219,0.10334 V 6.3523 l 6.8e-4,0.43747 0.31051,-0.40605 0.30968,-0.40616 0.0137,-0.0362 0.0138,-0.0363 V 5.47317 5.04127 l 0.0225,-0.0539 0.0225,-0.0538 0.15604,-0.16036 0.15604,-0.16041 0.0724,-0.031 0.0724,-0.0311 0.60228,-0.2262 0.60228,-0.22622 0.0386,-0.038 0.0386,-0.038 0.005,-0.27858 0.005,-0.2786 -0.0309,-0.0524 -0.0309,-0.0523 -0.20973,-0.2803 -0.20973,-0.28026 -0.0136,-0.0255 -0.0137,-0.0255 -0.008,-0.16212 -0.008,-0.16217 -6.9e-4,-0.33534 -6.9e-4,-0.77005 -0.0314,-0.0169 -0.0314,-0.0168 -0.19154,0.19235 -0.19155,0.1923 -0.005,0.76704 -0.005,0.46606 -0.0306,0.0722 -0.0307,0.0722 -0.0485,0.0687 -0.0485,0.0688 -0.19553,0.1754 -0.19553,0.17535 -0.0492,0.0311 -0.0492,0.0311 -0.55615,0.008 -0.55617,0.008 -0.0695,0.045 -0.0695,0.045 -0.17373,0.11318 -0.17372,0.11312 v 0.0433 0.0433 l 0.15442,0.27433 0.15442,0.27428 v 0.028 0.028 l -0.10528,0.14486 -0.10524,0.14486 -0.0426,0.0719 -0.0426,-0.0619 -0.13734,-0.13243 -0.13735,-0.13238 h -0.0227 -0.0227 l -0.15915,0.13127 -0.15916,0.13126 -0.042,0.0669 -0.042,-0.0669 -0.11642,-0.15368 -0.11637,-0.15367 9.1e-4,-0.0278 9.2e-4,-0.0277 0.0878,-0.21424 0.0878,-0.21418 0.99626,-0.99813 0.99628,-0.99808 0.60646,-0.61059 0.60645,-0.61054002 -0.44939,-0.33149 -0.44934,-0.33148 -0.13411,-0.0934 -0.13409,-0.0934 -0.0927,-0.0302 -0.0927,-0.0301999991 H 3.493465 Z M 0.988365,1.96727 l 0.0709,0.0488 0.0709,0.0488 0.46689,0.32704 0.46693,0.32703 0.45917,0.31659 0.45919,0.31659 -0.12046,0.11717 -0.12049,0.11715 -0.061,0.0101 -0.0611,0.0101 -0.47101,-10e-4 -0.47101,-0.001 -0.0476,-0.0138 -0.0476,-0.0138 -0.11801,-0.10069 -0.11795,-0.10065 -0.12946,-0.12736 -0.1294,-0.12738 -0.0448,-0.0927 -0.0448,-0.0927 -0.005,-0.48391 z" />
  </g>
</svg>
